<?xml version="1.0" encoding="UTF-8"?>
<svg width="223px" height="46px" viewBox="0 0 223 46" version="1.1" xmlns="http://www.w3.org/2000/svg" xmlns:xlink="http://www.w3.org/1999/xlink">
    <title>Group 8</title>
    <g id="Page-1" stroke="none" stroke-width="1" fill="none" fill-rule="evenodd">
        <g id="Login" transform="translate(-61.000000, -64.000000)" fill="#81CEF8" fill-rule="nonzero">
            <g id="Group-8" transform="translate(61.000000, 64.000000)">
                <g id="Beta" transform="translate(96.600156, 35.200000)">
                    <path d="M0,9.8 L0,0 L4.227125,0 C5.31445833,0 6.15974479,0.219552083 6.76298438,0.65865625 C7.36622396,1.09776042 7.66784375,1.71740625 7.66784375,2.51759375 C7.66784375,3.04842708 7.54377604,3.49613542 7.29564063,3.86071875 C7.04750521,4.22530208 6.71259896,4.50154687 6.29092188,4.68945312 C5.86924479,4.87735937 5.4026875,4.9713125 4.89125,4.9713125 L5.137125,4.63071875 C5.76085417,4.63071875 6.29992708,4.72769792 6.75434375,4.92165625 C7.20876042,5.11561458 7.56061979,5.40192187 7.80992188,5.78057812 C8.05922396,6.15923437 8.183875,6.62652083 8.183875,7.1824375 C8.183875,8.01441667 7.87769792,8.65867187 7.26534375,9.11520312 C6.65298958,9.57173437 5.73358333,9.8 4.507125,9.8 L0,9.8 Z M1.02571875,8.946875 L4.48371875,8.946875 C5.34923958,8.946875 6.01004688,8.79958333 6.46614063,8.505 C6.92223438,8.21041667 7.15028125,7.74309375 7.15028125,7.10303125 C7.15028125,6.46311458 6.92223438,5.99553646 6.46614063,5.70029687 C6.01004688,5.40505729 5.34923958,5.2574375 4.48371875,5.2574375 L0.924,5.2574375 L0.924,4.4043125 L4.15625,4.4043125 C4.94141667,4.4043125 5.55070833,4.256 5.984125,3.959375 C6.41754167,3.66275 6.63425,3.21919792 6.63425,2.62871875 C6.63425,2.03823958 6.41754167,1.5946875 5.984125,1.2980625 C5.55070833,1.0014375 4.94141667,0.853125 4.15625,0.853125 L1.02571875,0.853125 L1.02571875,8.946875 Z" id="Shape"></path>
                    <path d="M13.1699499,9.86584375 C12.4065124,9.86584375 11.7342936,9.70553646 11.1532936,9.38492187 C10.5722936,9.06430729 10.1188249,8.62104687 9.79288736,8.05514062 C9.46694986,7.48923437 9.30398111,6.84366667 9.30398111,6.1184375 C9.30398111,5.38927083 9.4592207,4.74373958 9.76969986,4.18184375 C10.080179,3.61994792 10.5082728,3.17869271 11.0539811,2.85807812 C11.5996894,2.53746354 12.2163457,2.37715625 12.9039499,2.37715625 C13.5914082,2.37715625 14.2040176,2.53410937 14.741778,2.84801562 C15.2795384,3.16192187 15.702054,3.60011458 16.0093249,4.16259375 C16.3165957,4.72507292 16.4702311,5.37753125 16.4702311,6.11996875 C16.4702311,6.16094792 16.4688822,6.20859896 16.4661842,6.26292187 C16.4634863,6.31724479 16.4595124,6.3695625 16.4542624,6.419875 L10.0608561,6.419875 L10.0608561,5.677875 L15.9275124,5.677875 L15.5298249,5.97515625 C15.5350749,5.44636458 15.4235488,4.97492187 15.1952467,4.56082812 C14.9669447,4.14673437 14.6561738,3.82145312 14.2629342,3.58498437 C13.8696947,3.34851562 13.4166999,3.23028125 12.9039499,3.23028125 C12.3952832,3.23028125 11.9419967,3.34851562 11.5440905,3.58498437 C11.1461842,3.82145312 10.8353769,4.14804687 10.6116686,4.56476562 C10.3879603,4.98148437 10.2761061,5.4595625 10.2761061,5.999 L10.2761061,6.166125 C10.2761061,6.71766667 10.3996269,7.20646354 10.6466686,7.63251562 C10.8937103,8.05856771 11.2374759,8.39114062 11.6779655,8.63023437 C12.1184551,8.86932812 12.6237311,8.988875 13.1937936,8.988875 C13.6473353,8.988875 14.0672988,8.90877604 14.4536842,8.74857812 C14.8400697,8.58838021 15.1699811,8.34538542 15.4434186,8.01959375 L16.0045124,8.66796875 C15.6765332,9.05996875 15.2686374,9.35761458 14.7808249,9.56090625 C14.2930124,9.76419792 13.756054,9.86584375 13.1699499,9.86584375 Z" id="Path"></path>
                    <path d="M20.5250944,9.86584375 C19.834136,9.86584375 19.3022819,9.67870312 18.9295319,9.30442187 C18.5567819,8.93014062 18.3704069,8.40298958 18.3704069,7.72296875 L18.3704069,0.82928125 L19.3644069,0.82928125 L19.3644069,7.66871875 C19.3644069,8.10271875 19.473235,8.43653125 19.6908913,8.67015625 C19.9085475,8.90378125 20.2230006,9.02059375 20.6342506,9.02059375 C21.0720423,9.02059375 21.436334,8.89510417 21.7271256,8.644125 L22.0738444,9.35571875 C21.8846985,9.52780208 21.6512194,9.65584375 21.3734069,9.73984375 C21.0955944,9.82384375 20.8128235,9.86584375 20.5250944,9.86584375 Z M17.0576881,3.27228125 L17.0576881,2.443 L21.6002506,2.443 L21.6002506,3.27228125 L17.0576881,3.27228125 Z" id="Shape"></path>
                    <path d="M28.1850156,9.8 L28.1850156,8.18103125 L28.1454218,7.9034375 L28.1454218,5.194875 C28.1454218,4.56589583 27.9692552,4.08384375 27.6169218,3.74871875 C27.2645885,3.41359375 26.7441823,3.24603125 26.0557031,3.24603125 C25.5778073,3.24603125 25.1254323,3.32481771 24.6985781,3.48239062 C24.2717239,3.63996354 23.9075781,3.84963542 23.6061406,4.11140625 L23.1640468,3.37596875 C23.5359218,3.05980208 23.9837395,2.81429167 24.5075,2.6394375 C25.0312604,2.46458333 25.5796302,2.37715625 26.1526093,2.37715625 C27.1089843,2.37715625 27.8458802,2.61431771 28.3632968,3.08864062 C28.8807135,3.56296354 29.1394218,4.27889583 29.1394218,5.2364375 L29.1394218,9.8 L28.1850156,9.8 Z M25.6490468,9.86584375 C25.0972135,9.86584375 24.6193906,9.77655729 24.2155781,9.59798437 C23.8117656,9.41941146 23.5015781,9.16817708 23.2850156,8.84428125 C23.0684531,8.52038542 22.9601718,8.14982292 22.9601718,7.73259375 C22.9601718,7.35021875 23.0510989,7.00145833 23.2329531,6.6863125 C23.4148073,6.37116667 23.7135468,6.11730729 24.1291718,5.92473437 C24.5447968,5.73216146 25.1037031,5.635875 25.8058906,5.635875 L28.3390156,5.635875 L28.3390156,6.377875 L25.8395781,6.377875 C25.1239739,6.377875 24.629526,6.50380208 24.3562343,6.75565625 C24.0829427,7.00751042 23.9462968,7.32061458 23.9462968,7.69496875 C23.9462968,8.11992708 24.1099218,8.45771354 24.4371718,8.70832812 C24.7644218,8.95894271 25.2186927,9.08425 25.7999843,9.08425 C26.3677135,9.08425 26.8527916,8.95628125 27.2552187,8.70034375 C27.6576458,8.44440625 27.9543802,8.07530208 28.1454218,7.59303125 L28.3646093,8.274875 C28.1792552,8.76370833 27.856125,9.15107812 27.3952187,9.43698437 C26.9343125,9.72289062 26.3522552,9.86584375 25.6490468,9.86584375 Z" id="Shape"></path>
                </g>
                <g id="Group">
                    <rect id="Rectangle" x="118.430279" y="4.43851435" width="4.45423518" height="21.7471482" rx="2.22711759"></rect>
                    <path d="M34.3238381,14.2771338 C34.3198895,10.1953298 31.7596378,6.55324468 27.9202034,5.16764591 C24.0807691,3.78204715 19.7847179,4.94978731 17.1750327,8.08836706 C14.5701942,4.92844849 10.2607471,3.74611812 6.40808248,5.13437041 C2.55541789,6.5226227 -0.00939207079,10.1819928 1.48937621e-14,14.2771338 C1.48937621e-14,14.3216762 1.48937621e-14,14.3635984 1.48937621e-14,14.4081407 L1.48937621e-14,14.4081407 L1.48937621e-14,23.9716457 C0.00146966164,25.2010502 0.997738902,26.1973195 2.22714344,26.1987633 L2.22714344,26.1987633 C3.45654798,26.1973195 4.45281722,25.2010502 4.45426103,23.9716457 L4.45426103,14.4081407 L4.45426103,14.4081407 C4.45426103,14.3635984 4.45426103,14.3216762 4.45426103,14.2771338 C4.45426103,11.3830089 6.80041281,9.03685714 9.69453771,9.03685714 C12.5886626,9.03685714 14.9348144,11.3830089 14.9348144,14.2771338 C14.9348144,14.3216762 14.9348144,14.3635984 14.9348144,14.4081407 L14.9348144,14.4081407 L14.9348144,23.9716457 C14.9362582,25.2010502 15.9325274,26.1973195 17.161932,26.1987633 L17.161932,26.1987633 C18.3913365,26.1973195 19.3876058,25.2010502 19.3890496,23.9716457 L19.3890496,14.4081407 L19.3890496,14.4081407 C19.3890496,14.3635984 19.3890496,14.3216762 19.3890496,14.2771338 C19.3890496,11.3830089 21.7352014,9.03685714 24.6293262,9.03685714 C27.5234511,9.03685714 29.8696029,11.3830089 29.8696029,14.2771338 C29.8696029,14.3216762 29.8696029,14.3635984 29.8696029,14.4081407 L29.8696029,14.4081407 L29.8696029,23.9716457 C29.8710467,25.2010502 30.867316,26.1973195 32.0967205,26.1987633 L32.0967205,26.1987633 C33.3261251,26.1973195 34.3223943,25.2010502 34.3238381,23.9716457 L34.3238381,14.4081407 L34.3238381,14.4081407 C34.321218,14.3504977 34.3238381,14.3085755 34.3238381,14.2771338 Z" id="Path"></path>
                    <path d="M163.758672,14.2771338 C163.754724,10.1953298 161.194472,6.55324468 157.355037,5.16764591 C153.515603,3.78204715 149.219552,4.94978731 146.609867,8.08836706 C144.005028,4.92844849 139.695581,3.74611812 135.842916,5.13437041 C131.990252,6.5226227 129.425442,10.1819928 129.434834,14.2771338 C129.434834,14.3216762 129.434834,14.3635984 129.434834,14.4081407 L129.434834,14.4081407 L129.434834,23.9716457 C129.436304,25.2010502 130.432573,26.1973195 131.661977,26.1987633 L131.661977,26.1987633 C132.891382,26.1973195 133.887651,25.2010502 133.889095,23.9716457 L133.889095,14.4081407 L133.889095,14.4081407 C133.889095,14.3635984 133.889095,14.3216762 133.889095,14.2771338 C133.889095,11.3830089 136.235247,9.03685714 139.129372,9.03685714 C142.023497,9.03685714 144.369648,11.3830089 144.369648,14.2771338 C144.369648,14.3216762 144.369648,14.3635984 144.369648,14.4081407 L144.369648,14.4081407 L144.369648,23.9716457 C144.371092,25.2010502 145.367361,26.1973195 146.596766,26.1987633 L146.596766,26.1987633 C147.826171,26.1973195 148.82244,25.2010502 148.823884,23.9716457 L148.823884,14.4081407 L148.823884,14.4081407 C148.823884,14.3635984 148.823884,14.3216762 148.823884,14.2771338 C148.823884,11.3830089 151.170035,9.03685714 154.06416,9.03685714 C156.958285,9.03685714 159.304437,11.3830089 159.304437,14.2771338 C159.304437,14.3216762 159.304437,14.3635984 159.304437,14.4081407 L159.304437,14.4081407 L159.304437,23.9716457 C159.305881,25.2010502 160.30215,26.1973195 161.531555,26.1987633 L161.531555,26.1987633 C162.760959,26.1973195 163.757228,25.2010502 163.758672,23.9716457 L163.758672,14.4081407 L163.758672,14.4081407 C163.756052,14.3504977 163.758672,14.3085755 163.758672,14.2771338 Z" id="Path"></path>
                    <path d="M57.5251631,4.58262196 L57.5251631,4.58262196 C56.2957586,4.58406577 55.2994893,5.58033501 55.2980455,6.80973955 L55.2980455,16.3732445 L55.2980455,16.3732445 C55.2980455,16.4177868 55.2980455,16.4597091 55.2980455,16.5042514 C55.2980455,19.3983763 52.9518937,21.7445281 50.0577688,21.7445281 C47.1636439,21.7445281 44.8174922,19.3983763 44.8174922,16.5042514 C44.8174922,16.4597091 44.8174922,16.4177868 44.8174922,16.3732445 L44.8174922,16.3732445 L44.8174922,6.80973955 C44.8160484,5.58033501 43.8197791,4.58406577 42.5903746,4.58262196 L42.5903746,4.58262196 C41.36097,4.58406577 40.3647008,5.58033501 40.363257,6.80973955 L40.363257,16.3732445 L40.363257,16.3732445 C40.363257,16.4177868 40.363257,16.4597091 40.363257,16.5042514 C40.363257,19.967767 42.2110203,23.1681875 45.2105128,24.8999453 C48.2100053,26.6317031 51.9055324,26.6317031 54.9050249,24.8999453 C57.9045174,23.1681875 59.7522807,19.967767 59.7522807,16.5042514 C59.7522807,16.4597091 59.7522807,16.4177868 59.7522807,16.3732445 L59.7522807,16.3732445 L59.7522807,6.80973955 C59.7508369,5.58033501 58.7545677,4.58406577 57.5251631,4.58262196 Z" id="Path"></path>
                    <path d="M112.141947,6.67873263 C112.140503,5.44932809 111.144234,4.45305885 109.914829,4.45161504 L95.2551552,4.45161504 C94.0257507,4.45305885 93.0294814,5.44932809 93.0280376,6.67873263 L93.0280376,6.67873263 C93.0294814,7.90813717 94.0257507,8.90440641 95.2551552,8.90585022 L100.364425,8.90585022 L100.364425,23.9716457 C100.365869,25.2010502 101.362138,26.1973195 102.591543,26.1987633 L102.591543,26.1987633 C103.820947,26.1973195 104.817216,25.2010502 104.81866,23.9716457 L104.81866,8.90585022 L109.92793,8.90585022 C111.157334,8.90440641 112.153604,7.90813717 112.155048,6.67873263 L112.141947,6.67873263 Z" id="Path"></path>
                    <path d="M75.6041177,21.7288073 L75.6041177,21.7288073 C72.7612803,21.6577142 70.4939591,19.3322565 70.4948479,16.4885306 C70.4948479,16.4439882 70.4948479,16.402066 70.4948479,16.3575237 L70.4948479,16.3575237 L70.4948479,6.79401872 C70.4847863,5.57075795 69.4910317,4.58401807 68.2677303,4.58262196 L68.2677303,4.58262196 C67.0383258,4.58406577 66.0420565,5.58033501 66.0406127,6.80973955 L66.0406127,16.3732445 L66.0406127,16.3732445 C66.0406127,16.4177868 66.0406127,16.4623292 66.0406127,16.5042514 C66.0401285,21.8076356 70.3012177,26.1270959 75.6041177,26.1987633 L84.3815811,26.1987633 C85.6115842,26.1987633 86.6086987,25.2016488 86.6086987,23.9716457 L86.6086987,23.9716457 C86.6072549,22.7422411 85.6109856,21.7459719 84.3815811,21.7445281 L75.6041177,21.7288073 Z" id="Path"></path>
                    <path d="M218.545765,2.23759814 L218.545765,6.69183332 C214.518887,3.77843775 209.020819,4.00113563 205.242759,7.23066831 C201.464698,10.460201 200.389219,15.8566524 202.640552,20.2878057 C204.891885,24.7189591 209.884519,27.0323885 214.72062,25.8853298 C219.556722,24.738271 222.978549,20.4290437 223,15.4588162 L223,15.4588162 L223,2.22711759 C222.998556,0.997713052 222.002287,0.00144381187 220.772882,0 L220.772882,0 C220.180609,0.00069229232 219.612946,0.236996143 219.195129,0.656778957 C218.777313,1.07656177 218.543676,1.64532795 218.545765,2.23759814 Z M212.744779,21.7104663 C210.105461,21.9257555 207.612178,20.4713794 206.500379,18.0679964 C205.388579,15.6646133 205.894467,12.822828 207.76737,10.9507745 C209.640272,9.078721 212.482287,8.5741217 214.885165,9.68701079 C217.288044,10.7998999 218.74129,13.2938413 218.524804,15.9330612 C218.269977,19.0131056 215.824938,21.4570359 212.744779,21.7104663 L212.744779,21.7104663 Z" id="Shape"></path>
                    <rect id="Rectangle" x="169.78499" y="13.1897764" width="17.292913" height="4.45423518" rx="2.22711759"></rect>
                    <path d="M184.457765,4.64812542 L184.457765,4.66122611 L175.09077,4.66122611 C173.861366,4.66266992 172.865097,5.65893916 172.863653,6.8883437 L172.863653,6.8883437 C172.865097,8.11774823 173.861366,9.11401747 175.09077,9.11546129 L184.654275,9.11546129 L184.654275,9.11546129 C188.053393,9.22399515 190.757111,12.0029769 190.772298,15.4037933 C190.790639,18.8964377 187.811542,21.7523885 184.318898,21.7523885 L175.09077,21.7523885 C173.861366,21.7538323 172.865097,22.7501016 172.863653,23.9795061 L172.863653,23.9795061 C172.865097,25.2089106 173.861366,26.2051799 175.09077,26.2066237 L184.654275,26.2066237 L184.654275,26.2066237 C190.600255,26.1523587 195.376433,21.2881995 195.322168,15.3422201 C195.267904,9.39624056 190.403745,4.62006211 184.457765,4.6743268 L184.457765,4.64812542 Z" id="Path"></path>
                </g>
            </g>
        </g>
    </g>
</svg>